<svg width="22" height="22" viewBox="0 0 22 22" fill="none" xmlns="http://www.w3.org/2000/svg">
<circle cx="11" cy="11" r="11" fill="white" fill-opacity="0.2"/>
<g opacity="0.4">
<path fill-rule="evenodd" clip-rule="evenodd" d="M14.75 11C14.75 11.828 15.422 12.5 16.25 12.5C17.078 12.5 17.75 11.828 17.75 11C17.75 10.172 17.078 9.5 16.25 9.5C15.422 9.5 14.75 10.172 14.75 11ZM12.5 11C12.5 10.172 11.828 9.5 11 9.5C10.172 9.5 9.5 10.172 9.5 11C9.5 11.828 10.172 12.5 11 12.5C11.828 12.5 12.5 11.828 12.5 11ZM5.75 9.5C6.578 9.5 7.25 10.172 7.25 11C7.25 11.828 6.578 12.5 5.75 12.5C4.922 12.5 4.25 11.828 4.25 11C4.25 10.172 4.922 9.5 5.75 9.5Z" fill="#231F20"/>
<mask id="mask0" mask-type="alpha" maskUnits="userSpaceOnUse" x="4" y="9" width="14" height="4">
<path fill-rule="evenodd" clip-rule="evenodd" d="M14.75 11C14.75 11.828 15.422 12.5 16.25 12.5C17.078 12.5 17.75 11.828 17.75 11C17.75 10.172 17.078 9.5 16.25 9.5C15.422 9.5 14.75 10.172 14.75 11ZM12.5 11C12.5 10.172 11.828 9.5 11 9.5C10.172 9.5 9.5 10.172 9.5 11C9.5 11.828 10.172 12.5 11 12.5C11.828 12.5 12.5 11.828 12.5 11ZM5.75 9.5C6.578 9.5 7.25 10.172 7.25 11C7.25 11.828 6.578 12.5 5.75 12.5C4.922 12.5 4.25 11.828 4.25 11C4.25 10.172 4.922 9.5 5.75 9.5Z" fill="white"/>
</mask>
<g mask="url(#mask0)">
<rect x="20" y="2" width="18" height="18" transform="rotate(90 20 2)" fill="white"/>
</g>
</g>
</svg>
