<svg width="50" height="50" viewBox="0 0 50 50" fill="none" xmlns="http://www.w3.org/2000/svg">
<circle cx="25" cy="25" r="25" fill="#2D2D3A"/>
<path fill-rule="evenodd" clip-rule="evenodd" d="M24.9833 17.9386L16.9403 24.4111C16.2953 24.9301 15.3518 24.8281 14.8313 24.1831C14.3123 23.5366 14.4143 22.5931 15.0593 22.0726L24.0593 14.8306C24.6158 14.3836 25.4108 14.3881 25.9598 14.8486L34.9598 22.3486C35.5973 22.8781 35.6828 23.8231 35.1518 24.4606C34.8548 24.8161 34.4288 25.0006 33.9998 25.0006C33.6608 25.0006 33.3203 24.8851 33.0398 24.6526L24.9833 17.9386ZM24.0596 25.3314C24.6161 24.8829 25.4111 24.8889 25.9601 25.3479L34.9601 32.8479C35.5961 33.3789 35.6816 34.3239 35.1521 34.9599C34.8551 35.3169 34.4291 35.4999 33.9986 35.4999C33.6611 35.4999 33.3206 35.3859 33.0401 35.1519L24.9836 28.4394L16.9406 34.9104C16.2956 35.4309 15.3521 35.3289 14.8316 34.6824C14.3111 34.0374 14.4146 33.0939 15.0596 32.5734L24.0596 25.3314Z" fill="#4B4B62"/>
<mask id="mask0" mask-type="alpha" maskUnits="userSpaceOnUse" x="14" y="14" width="22" height="22">
<path fill-rule="evenodd" clip-rule="evenodd" d="M24.9833 17.9386L16.9403 24.4111C16.2953 24.9301 15.3518 24.8281 14.8313 24.1831C14.3123 23.5366 14.4143 22.5931 15.0593 22.0726L24.0593 14.8306C24.6158 14.3836 25.4108 14.3881 25.9598 14.8486L34.9598 22.3486C35.5973 22.8781 35.6828 23.8231 35.1518 24.4606C34.8548 24.8161 34.4288 25.0006 33.9998 25.0006C33.6608 25.0006 33.3203 24.8851 33.0398 24.6526L24.9833 17.9386ZM24.0596 25.3314C24.6161 24.8829 25.4111 24.8889 25.9601 25.3479L34.9601 32.8479C35.5961 33.3789 35.6816 34.3239 35.1521 34.9599C34.8551 35.3169 34.4291 35.4999 33.9986 35.4999C33.6611 35.4999 33.3206 35.3859 33.0401 35.1519L24.9836 28.4394L16.9406 34.9104C16.2956 35.4309 15.3521 35.3289 14.8316 34.6824C14.3111 34.0374 14.4146 33.0939 15.0596 32.5734L24.0596 25.3314Z" fill="white"/>
</mask>
<g mask="url(#mask0)">
<rect x="7" y="7" width="36" height="36" fill="#4B4B62"/>
</g>
</svg>
